# xmcd CD database generated by RipIT
#
# Track frame offsets:
# 150
# 28117
# 59309
# 87153
# 115393
# 137112
# 165474
# 196714
# 221641
# 244978
# 269252
# 284334
# 306301
#
# Disc length: 4342 seconds
#
# Revision: 0
# Processed by: cddbd v1.5.1PL0 Copyright (c) Steve Scherf et al.
# Submitted via: RipIT 3.3.3 www.suwald.com/ripit/ripit.html at Wed Jun 22 01:21:04 CEST 2005
#
DISCID=bf10f40d
DTITLE=Leonard Cohen - Live In Concert
DYEAR=1994
DGENRE=
TTITLE0=Dance Me to the End of Love
TTITLE1=Bird on a Wire
TTITLE2=Everybody Knows
TTITLE3=Joan of Arc
TTITLE4=There is a War
TTITLE5=Sisters of Mercy
TTITLE6=Hallelujah
TTITLE7=I'm Your Man
TTITLE8=Who by Fire
TTITLE9=One of Cannot be Wrong
TTITLE10=If It  Be Your Will
TTITLE11=Heart with No Companion
TTITLE12=Suzanne
EXTD=
EXTT0=
EXTT1=
EXTT2=
EXTT3=
EXTT4=
EXTT5=
EXTT6=
EXTT7=
EXTT8=
EXTT9=
EXTT10=
EXTT11=
EXTT12=
PLAYORDER=
